<svg width="34" height="16" viewBox="0 0 34 16" fill="none" xmlns="http://www.w3.org/2000/svg">
<path fill-rule="evenodd" clip-rule="evenodd" d="M0.726105 0.465149H33.9745V1.65552H0.726105V0.465149ZM0.726105 2.84589H33.9745V4.03626H0.726105V2.84589ZM0.726105 5.2236H33.9745V6.41699H0.726105V5.2236ZM0.726105 7.60434H33.9745V8.79471H0.726105V7.60434ZM0.726105 9.98508H33.9745V11.1754H0.726105V9.98508ZM0.726105 12.3628H33.9745V13.5532H0.726105V12.3628ZM0.726105 14.7435H33.9745V15.9339H0.726105V14.7435Z" fill="#BD3D44"/>
<path fill-rule="evenodd" clip-rule="evenodd" d="M0.726105 1.65552H33.9745V2.84589H0.726105V1.65552ZM0.726105 4.03625H33.9745V5.2236H0.726105V4.03625ZM0.726105 6.41397H33.9745V7.60433H0.726105V6.41397ZM0.726105 8.7947H33.9745V9.98507H0.726105V8.7947ZM0.726105 11.1754H33.9745V12.3658H0.726105V11.1754ZM0.726105 13.5532H33.9745V14.7435H0.726105V13.5532Z" fill="white"/>
<path fill-rule="evenodd" clip-rule="evenodd" d="M0.726105 0.465149H14.0248V8.79472H0.726105V0.465149Z" fill="#192F5D"/>
<path fill-rule="evenodd" clip-rule="evenodd" d="M1.83349 0.821655L1.95653 1.15097H2.34616L2.03172 1.35339L2.15134 1.68573L1.83349 1.48029L1.51905 1.68271L1.63867 1.35339L1.32082 1.15097H1.71728L1.83349 0.821655ZM4.05164 0.821655L4.17126 1.15097H4.56431L4.24645 1.35339L4.36608 1.68573L4.05164 1.48029L3.73378 1.68271L3.85341 1.35339L3.53897 1.15097H3.9286L4.05164 0.821655ZM6.26637 0.821655L6.38941 1.15097H6.77563L6.46119 1.35339L6.58081 1.68573L6.26296 1.48029L5.94852 1.68271L6.06814 1.35339L5.75029 1.15097H6.14333L6.26637 0.821655ZM8.48453 0.821655L8.60415 1.15097H8.9972L8.67934 1.35339L8.80238 1.68573L8.48453 1.48029L8.16667 1.68271L8.28971 1.35339L7.97186 1.15097H8.36149L8.48453 0.821655ZM10.6993 0.821655L10.8223 1.15097H11.2119L10.8975 1.35339L11.0171 1.68573L10.6993 1.48029L10.3848 1.68271L10.5044 1.35339L10.19 1.15097H10.5796L10.6993 0.821655ZM12.9174 0.821655L13.037 1.15097H13.4301L13.1122 1.35339L13.2353 1.68573L12.9174 1.48029L12.5996 1.68271L12.7226 1.35339L12.4047 1.15097H12.7978L12.9174 0.821655ZM2.94427 1.65552L3.06389 1.98483H3.45694L3.13909 2.18726L3.25529 2.51657L2.94769 2.31415L2.62983 2.51657L2.74262 2.18726L2.43502 1.98483H2.82465L2.94427 1.65552ZM5.15901 1.65552L5.28205 1.98483H5.67168L5.35382 2.18726L5.47686 2.51657L5.15901 2.31415L4.84115 2.51657L4.96419 2.18726L4.64634 1.98483H5.03938L5.15901 1.65552ZM7.37716 1.65552L7.49678 1.98483H7.88983L7.57197 2.18726L7.6916 2.51657L7.37716 2.31415L7.0593 2.51657L7.17893 2.18726L6.86449 1.98483H7.25412L7.37716 1.65552ZM9.59189 1.65552L9.71494 1.98483H10.1046L9.78671 2.18726L9.90975 2.51657L9.59189 2.31415L9.27746 2.51657L9.39708 2.18726L9.07922 1.98483H9.47569L9.59189 1.65552ZM11.81 1.65552L11.9297 1.98483H12.3227L12.0049 2.18726L12.1245 2.51657L11.81 2.31415L11.4922 2.51657L11.6118 2.18726L11.2974 1.98483H11.687L11.81 1.65552ZM1.83349 2.48636L1.95653 2.82172H2.34616L2.03172 3.02414L2.15134 3.35345L1.83349 3.14801L1.51905 3.35345L1.63867 3.02112L1.32082 2.8187H1.71728L1.83349 2.48636ZM4.05164 2.48636L4.17126 2.8187H4.56431L4.24645 3.02112L4.36608 3.35043L4.05164 3.14499L3.73378 3.35043L3.85341 3.0181L3.53897 2.81567H3.9286L4.05164 2.48636ZM6.26637 2.48636L6.38941 2.8187H6.77563L6.46119 3.02112L6.58081 3.35043L6.26296 3.14499L5.94852 3.35043L6.06814 3.0181L5.75029 2.81567H6.14333L6.26637 2.48636ZM8.48453 2.48636L8.60415 2.8187H8.9972L8.67934 3.02112L8.80238 3.35043L8.48453 3.14499L8.16667 3.35043L8.28971 3.0181L7.97186 2.81567H8.36149L8.48453 2.48636ZM10.6993 2.48636L10.8223 2.8187H11.2119L10.8975 3.02112L11.0171 3.35043L10.6993 3.14499L10.3848 3.35043L10.5044 3.0181L10.19 2.81567H10.5796L10.6993 2.48636ZM12.9174 2.48636L13.037 2.8187H13.4301L13.1122 3.02112L13.2353 3.35043L12.9174 3.14499L12.5996 3.35043L12.7226 3.0181L12.4047 2.81567H12.7978L12.9174 2.48636ZM2.94427 3.32022L3.06389 3.64954H3.45694L3.13909 3.85196L3.25871 4.1843L2.94427 3.97885L2.62642 4.18127L2.74604 3.85196L2.4316 3.64954H2.82123L2.94427 3.32022ZM5.15901 3.32022L5.28205 3.64954H5.67168L5.35382 3.85196L5.47686 4.1843L5.15901 3.97885L4.84115 4.18127L4.96419 3.85196L4.64634 3.64954H5.03938L5.15901 3.32022ZM7.37716 3.32022L7.49678 3.64954H7.88983L7.57197 3.85196L7.6916 4.1843L7.37716 3.97885L7.0593 4.18127L7.17893 3.85196L6.86449 3.64954H7.25412L7.37716 3.32022ZM9.59189 3.32022L9.71494 3.64954H10.1046L9.79013 3.85196L9.90975 4.1843L9.59189 3.97885L9.27746 4.18127L9.39708 3.85196L9.07922 3.64954H9.47569L9.59189 3.32022ZM11.81 3.32022L11.9297 3.64954H12.3227L12.0049 3.85196L12.1245 4.1843L11.81 3.97885L11.4922 4.18127L11.6118 3.85196L11.2974 3.64954H11.687L11.81 3.32022ZM1.83349 4.15408L1.95653 4.4834H2.34616L2.03172 4.68582L2.15134 5.01816L1.83349 4.81271L1.51905 5.01514L1.63867 4.68582L1.32082 4.4834H1.71728L1.83349 4.15408ZM4.05164 4.15408L4.17126 4.4834H4.56431L4.24645 4.68582L4.36608 5.01514L4.05164 4.81271L3.73378 5.01514L3.85341 4.68582L3.53897 4.4834H3.9286L4.05164 4.15408ZM6.26637 4.15408L6.38941 4.4834H6.77563L6.46119 4.68582L6.58081 5.01816L6.26296 4.81271L5.94852 5.01514L6.06814 4.68582L5.75029 4.4834H6.14333L6.26637 4.15408ZM8.48453 4.15408L8.60415 4.4834H8.9972L8.67934 4.68582L8.80238 5.01816L8.48453 4.81271L8.16667 5.01514L8.28971 4.68582L7.97186 4.4834H8.36149L8.48453 4.15408ZM10.6993 4.15408L10.8223 4.4834H11.2119L10.8975 4.68582L11.0171 5.01816L10.6993 4.81271L10.3848 5.01514L10.5044 4.68582L10.19 4.4834H10.5796L10.6993 4.15408ZM12.9174 4.15408L13.037 4.4834H13.4301L13.1122 4.68582L13.2353 5.01816L12.9174 4.81271L12.5996 5.01514L12.7226 4.68582L12.4047 4.4834H12.7978L12.9174 4.15408ZM2.94427 4.98795L3.06389 5.31726H3.45694L3.13909 5.51968L3.25871 5.849L2.94427 5.64355L2.62642 5.849L2.74604 5.51666L2.4316 5.31424H2.82123L2.94427 4.98795ZM5.15901 4.98795L5.28205 5.31726H5.67168L5.35382 5.51968L5.47686 5.849L5.15901 5.64355L4.84115 5.849L4.96419 5.51666L4.64634 5.31424H5.03938L5.15901 4.98795ZM7.37716 4.98795L7.49678 5.31726H7.88983L7.57197 5.51968L7.6916 5.849L7.37716 5.64355L7.0593 5.849L7.17893 5.51666L6.86449 5.31424H7.25412L7.37716 4.98795ZM9.59189 4.98795L9.71494 5.31726H10.1046L9.79013 5.51968L9.90975 5.849L9.59189 5.64355L9.27746 5.849L9.39708 5.51666L9.07922 5.31424H9.47569L9.59189 4.98795ZM11.81 4.98795L11.9297 5.31726H12.3227L12.0049 5.51968L12.1245 5.849L11.81 5.64355L11.4922 5.849L11.6118 5.51666L11.2974 5.31424H11.687L11.81 4.98795ZM1.83349 5.81879L1.95653 6.15112H2.34616L2.03172 6.35355L2.15134 6.67984L1.83349 6.47742L1.51905 6.67984L1.63867 6.35053L1.32082 6.1481H1.71728L1.83349 5.81879ZM4.05164 5.81879L4.17126 6.15112H4.56431L4.24645 6.35355L4.36949 6.67984L4.05164 6.47742L3.73378 6.67984L3.85682 6.35053L3.53897 6.1481H3.9286L4.05164 5.81879ZM6.26637 5.81879L6.38941 6.15112H6.77563L6.46119 6.35355L6.58081 6.67984L6.26296 6.47742L5.94852 6.67984L6.06814 6.35053L5.75029 6.1481H6.14333L6.26637 5.81879ZM8.48453 5.81879L8.60415 6.15112H8.9972L8.67934 6.35355L8.80238 6.67984L8.48453 6.47742L8.16667 6.67984L8.28971 6.35053L7.97186 6.1481H8.36149L8.48453 5.81879ZM10.6993 5.81879L10.8223 6.15112H11.2119L10.8975 6.35355L11.0171 6.67984L10.6993 6.47742L10.3848 6.67984L10.5044 6.35053L10.19 6.1481H10.5796L10.6993 5.81879ZM12.9174 5.81879L13.037 6.15112H13.4301L13.1122 6.35355L13.2353 6.67984L12.9174 6.47742L12.5996 6.67984L12.7226 6.35053L12.4047 6.1481H12.7978L12.9174 5.81879ZM2.94427 6.65265L3.06389 6.98196H3.45694L3.13909 7.18439L3.25871 7.51672L2.94427 7.31128L2.62642 7.5137L2.74604 7.18439L2.4316 6.98196H2.82123L2.94427 6.65265ZM5.15901 6.65265L5.28205 6.98196H5.67168L5.35382 7.18439L5.47686 7.51672L5.15901 7.31128L4.84115 7.5137L4.96419 7.18439L4.64634 6.98196H5.03938L5.15901 6.65265ZM7.37716 6.65265L7.49678 6.98196H7.88983L7.57197 7.18439L7.6916 7.51672L7.37716 7.31128L7.0593 7.5137L7.17893 7.18439L6.86449 6.98196H7.25412L7.37716 6.65265ZM9.59189 6.65265L9.71494 6.98196H10.1046L9.79013 7.18439L9.90975 7.51672L9.59189 7.31128L9.27746 7.5137L9.39708 7.18439L9.07922 6.98196H9.47569L9.59189 6.65265ZM11.81 6.65265L11.9297 6.98196H12.3227L12.0049 7.18439L12.1245 7.51672L11.81 7.31128L11.4922 7.5137L11.6118 7.18439L11.2974 6.98196H11.687L11.81 6.65265ZM1.83349 7.48651L1.95653 7.81583H2.34616L2.03172 8.01825L2.15134 8.34756L1.83349 8.14514L1.51905 8.34756L1.63867 8.01523L1.32082 7.81281H1.71728L1.83349 7.48651ZM4.05164 7.48651L4.17126 7.81583H4.56431L4.24645 8.01825L4.36949 8.34756L4.05164 8.14514L3.73378 8.34756L3.85682 8.01523L3.53897 7.81281H3.9286L4.05164 7.48651ZM6.26637 7.48651L6.38941 7.81583H6.77563L6.46802 8.01825L6.58765 8.34756L6.26979 8.14514L5.95535 8.34756L6.07498 8.01523L5.75712 7.81281H6.15017L6.26637 7.48651ZM8.48453 7.48651L8.60415 7.81583H8.9972L8.67934 8.01825L8.80238 8.34756L8.48453 8.14514L8.16667 8.34756L8.28971 8.01523L7.97186 7.81281H8.36149L8.48453 7.48651ZM10.6993 7.48651L10.8223 7.81583H11.2119L10.8975 8.01825L11.0171 8.34756L10.6993 8.14514L10.3848 8.34756L10.5044 8.01523L10.19 7.81281H10.5796L10.6993 7.48651ZM12.9174 7.48651L13.037 7.81583H13.4301L13.1122 8.01825L13.2353 8.34756L12.9174 8.14514L12.5996 8.34756L12.7226 8.01523L12.4047 7.81281H12.7978L12.9174 7.48651Z" fill="white"/>
</svg>
