<svg width="111" height="105" viewBox="0 0 111 105" fill="none" xmlns="http://www.w3.org/2000/svg">
<path d="M99.7333 0.666672H42.8444V18.4444H57.0667V25.5556H10.8444C4.79999 25.5556 0.177765 30.1778 0.177765 36.2222V75.3333C0.177765 81.3778 4.79999 86 10.8444 86H14.4V104.133L36.8 86H60.6222V61.1111H99.7333C105.778 61.1111 110.4 56.4889 110.4 50.4444V11.3333C110.4 5.28889 105.778 0.666672 99.7333 0.666672V0.666672ZM38.5778 71.4222L36.8 65.7333H25.7778L23.6444 71.4222H15.1111L26.8444 39.7778H35.3778L47.1111 71.4222H38.5778ZM92.6222 43.3333V50.4444C88 50.4444 83.0222 49.0222 78.7555 46.8889C74.4889 49.0222 69.5111 50.0889 64.5333 50.4444L64.1778 43.3333C66.6667 43.3333 69.1555 42.9778 71.6444 42.2667C68.4444 39.0667 66.3111 35.1556 65.2444 30.8889H72.7111C73.7778 34.0889 75.9111 36.5778 78.4 38.7111C82.3111 35.5111 84.8 30.8889 85.1555 25.5556H63.8222V18.4444H74.4889V11.3333H81.6V18.4444H93.3333L93.6889 22C94.0444 29.4667 91.2 36.9333 85.8667 42.2667C88.3555 42.9778 90.4889 43.3333 92.6222 43.3333V43.3333Z" fill="black"/>
</svg>
