<svg width="67" height="18" viewBox="0 0 67 18" fill="none" xmlns="http://www.w3.org/2000/svg">
<g clip-path="url(#clip0)">
<path d="M13.2808 7.68069H7.70466C7.56079 7.68069 7.44399 7.79763 7.44399 7.9415V10.6678C7.44399 10.8117 7.56079 10.9287 7.70453 10.9287H9.87994V14.316C9.87994 14.316 9.39148 14.4825 8.04109 14.4825C6.4479 14.4825 4.22224 13.9003 4.22224 9.00635C4.22224 4.11138 6.53984 3.4674 8.71551 3.4674C10.5988 3.4674 11.4102 3.79891 11.9264 3.95871C12.0886 4.00843 12.2387 3.84695 12.2387 3.70295L12.8607 1.06873C12.8607 1.0014 12.8379 0.920331 12.7611 0.865295C12.5515 0.715727 11.2724 0 8.04096 0C4.31859 0 0.5 1.58374 0.5 9.19722C0.5 16.811 4.8718 17.9455 8.55597 17.9455C11.6063 17.9455 13.4566 16.642 13.4566 16.642C13.533 16.5999 13.5412 16.4933 13.5412 16.4444V7.9415C13.5412 7.79776 13.4246 7.68069 13.2809 7.68069H13.2808ZM42.0031 0.952964C42.0031 0.807928 41.8881 0.690863 41.7442 0.690863H38.6044C38.5702 0.690999 38.5362 0.697886 38.5046 0.711132C38.473 0.724377 38.4443 0.743721 38.4201 0.768059C38.396 0.792398 38.3769 0.821254 38.3639 0.85298C38.3509 0.884706 38.3443 0.918681 38.3444 0.952964L38.3452 7.02065H33.4513V0.953094C33.4513 0.808058 33.3358 0.690993 33.1921 0.690993H30.0524C29.9832 0.69137 29.9171 0.719192 29.8684 0.768341C29.8198 0.817491 29.7926 0.883946 29.793 0.953094V17.3826C29.793 17.5276 29.9095 17.6454 30.0524 17.6454H33.192C33.3356 17.6454 33.451 17.5276 33.451 17.3826V10.3551H38.3451L38.3365 17.3824C38.3365 17.5275 38.4531 17.6453 38.5965 17.6453H41.7438C41.8876 17.6453 42.0026 17.5275 42.0028 17.3824V0.953094L42.0031 0.952964ZM19.1954 3.14961C19.1954 2.01911 18.2889 1.10538 17.1707 1.10538C16.0536 1.10538 15.1464 2.01898 15.1464 3.14961C15.1464 4.27882 16.0536 5.19501 17.1707 5.19501C18.2889 5.19501 19.1954 4.27882 19.1954 3.14961ZM18.9462 13.9253V6.34144C18.9462 6.19744 18.8301 6.07973 18.6865 6.07973H15.5567C15.4131 6.07973 15.2847 6.22787 15.2847 6.37187V17.2373C15.2847 17.5566 15.4836 17.6515 15.7412 17.6515H18.561C18.8705 17.6515 18.9462 17.4996 18.9462 17.2321V13.9253ZM54.003 6.07986H50.8873C50.7443 6.07986 50.6281 6.19757 50.6281 6.34248V14.3984C50.6281 14.3984 49.8366 14.9776 48.7131 14.9776C47.5897 14.9776 47.2916 14.4677 47.2916 13.3678V6.3426C47.2916 6.19757 47.1754 6.07973 47.0325 6.07973H43.8703C43.7276 6.07973 43.6106 6.19757 43.6106 6.3426V13.8998C43.6106 17.167 45.4318 17.9663 47.9369 17.9663C49.992 17.9663 51.6489 16.831 51.6489 16.831C51.6489 16.831 51.7279 17.4293 51.7635 17.5003C51.7992 17.5711 51.8922 17.6425 51.9927 17.6425L54.0044 17.6337C54.1471 17.6337 54.2641 17.5157 54.2641 17.3714L54.263 6.34248C54.263 6.19757 54.1465 6.07986 54.003 6.07986ZM61.1816 14.9838C60.101 14.9509 59.3679 14.4605 59.3679 14.4605V9.25744C59.3679 9.25744 60.0911 8.81417 60.9783 8.73492C62.1003 8.63443 63.1814 8.97332 63.1814 11.6499C63.1814 14.4723 62.6935 15.0292 61.1816 14.9836V14.9838ZM62.4105 5.72698C60.641 5.72698 59.4373 6.51652 59.4373 6.51652V0.952964C59.4375 0.918739 59.431 0.884803 59.4181 0.853098C59.4052 0.821394 59.3862 0.792543 59.3622 0.768198C59.3381 0.743852 59.3095 0.724491 59.2779 0.711221C59.2464 0.69795 59.2125 0.691033 59.1783 0.690863H56.0296C55.9954 0.691016 55.9615 0.697918 55.9299 0.711176C55.8983 0.724434 55.8696 0.743787 55.8455 0.768129C55.8214 0.79247 55.8024 0.821324 55.7894 0.853039C55.7765 0.884754 55.7699 0.91871 55.7701 0.952964V17.3824C55.7701 17.5275 55.8864 17.6453 56.03 17.6453H58.2146C58.313 17.6453 58.3875 17.5948 58.4425 17.5058C58.4968 17.4175 58.5751 16.7483 58.5751 16.7483C58.5751 16.7483 59.8626 17.9684 62.2998 17.9684C65.1612 17.9684 66.8022 16.517 66.8022 11.4528C66.8022 6.38858 64.1814 5.72685 62.4105 5.72685V5.72698ZM27.9829 6.05137H25.6277L25.6241 2.93996C25.6241 2.82224 25.5635 2.76332 25.4273 2.76332H22.2178C22.093 2.76332 22.0261 2.81823 22.0261 2.93814V6.15354C22.0261 6.15354 20.4177 6.54177 20.3089 6.57311C20.2547 6.58885 20.207 6.62178 20.1731 6.66695C20.1392 6.71212 20.1209 6.76707 20.1209 6.82355V8.84409C20.1209 8.98938 20.2369 9.10658 20.3805 9.10658H22.0261V13.9674C22.0261 17.5777 24.5585 17.9324 26.2675 17.9324C27.0483 17.9324 27.9824 17.6816 28.1366 17.6247C28.2298 17.5904 28.284 17.4939 28.284 17.389L28.2866 15.1664C28.2866 15.0215 28.1642 14.9041 28.0263 14.9041C27.889 14.9041 27.5381 14.9599 27.1765 14.9599C26.0197 14.9599 25.6277 14.422 25.6277 13.7258L25.6276 9.10671H27.9829C28.0172 9.10657 28.0512 9.09966 28.0828 9.08638C28.1144 9.0731 28.1432 9.05371 28.1673 9.02931C28.1914 9.00491 28.2105 8.976 28.2234 8.94421C28.2364 8.91243 28.2429 8.8784 28.2427 8.84409V6.31334C28.2427 6.1683 28.1265 6.0515 27.9829 6.0515V6.05137Z" fill="white"/>
</g>
<defs>
<clipPath id="clip0">
<rect width="66.3022" height="18" fill="white" transform="translate(0.5)"/>
</clipPath>
</defs>
</svg>
