<svg width="30" height="32" viewBox="0 0 30 32" fill="none" xmlns="http://www.w3.org/2000/svg">
<path d="M5.44799 27.201L3.37384 2H26.1646L24.0877 27.197L14.7554 30L5.44799 27.201Z" fill="#E44F26"/>
<path d="M14.7692 27.858L22.3108 25.593L24.0849 4.061H14.7692V27.858Z" fill="#F1662A"/>
<path d="M14.7692 13.407H10.9938L10.7335 10.242H14.7692V7.151H7.61539L7.68369 7.981L8.38431 16.498H14.7692V13.407Z" fill="#EBEBEB"/>
<path d="M14.7692 21.434L14.7563 21.438L11.5791 20.509L11.376 18.044H8.51169L8.91138 22.896L14.7563 24.654L14.7692 24.65V21.434Z" fill="#EBEBEB"/>
<path d="M14.7591 13.407V16.498H18.2723L17.9418 20.507L14.7591 21.437V24.653L20.6086 22.896L20.6511 22.374L21.3212 14.237L21.3914 13.407H14.7591Z" fill="white"/>
<path d="M14.7591 7.151V10.242H21.6508L21.708 9.548L21.8382 7.981L21.9065 7.151H14.7591Z" fill="white"/>
</svg>
