<svg width="30" height="32" viewBox="0 0 30 32" fill="none" xmlns="http://www.w3.org/2000/svg">
<path d="M5.67878 27.201L3.60555 2H26.3945L24.3185 27.197L14.9862 30L5.67878 27.201Z" fill="#1572B6"/>
<path d="M15 27.858L22.5415 25.593L24.3157 4.061H15V27.858Z" fill="#33A9DC"/>
<path d="M15 13.191H18.7754L19.0357 10.026H15V6.935H22.1539L22.0855 7.764L21.3849 16.282H15V13.191Z" fill="white"/>
<path d="M15.0175 21.218L15.0046 21.222L11.8274 20.292L11.6243 17.827H8.76L9.15969 22.68L15.0037 24.438L15.0175 24.434V21.218Z" fill="#EBEBEB"/>
<path d="M18.5326 16.151L18.1892 20.29L15.0074 21.22V24.436L20.856 22.68L20.8994 22.158L21.3951 16.151H18.5326Z" fill="white"/>
<path d="M15.0102 6.935V10.026H8.11846L8.06123 9.331L7.93108 7.764L7.86277 6.935H15.0102Z" fill="#EBEBEB"/>
<path d="M15 13.191V16.282H11.8625L11.8052 15.587L11.676 14.02L11.6077 13.191H15Z" fill="#EBEBEB"/>
</svg>
