<svg width="24" height="32" viewBox="0 0 24 32" fill="none" xmlns="http://www.w3.org/2000/svg">
<g clip-path="url(#clip0)">
<path d="M7.90331 24.7374C7.90331 24.7374 6.71358 25.4472 8.75003 25.6874C11.2172 25.9762 12.478 25.9348 15.1969 25.4068C15.1969 25.4068 15.9117 25.8666 16.9099 26.265C10.8151 28.9449 3.1161 26.1097 7.90331 24.7374Z" fill="#5382A1"/>
<path d="M7.15853 21.2401C7.15853 21.2401 5.82413 22.2536 7.86211 22.4698C10.4976 22.7488 12.5788 22.7716 16.1803 22.0601C16.1803 22.0601 16.6784 22.5782 17.4617 22.8616C10.0926 25.0723 1.88492 23.0359 7.15853 21.2401Z" fill="#5382A1"/>
<path d="M13.4371 15.3078C14.9389 17.0816 13.0425 18.6779 13.0425 18.6779C13.0425 18.6779 16.8557 16.6583 15.1045 14.1292C13.4689 11.7708 12.2145 10.5989 19.0048 6.55853C19.0048 6.55853 8.34637 9.28963 13.4371 15.3077" fill="#E76F00"/>
<path d="M21.4975 27.3241C21.4975 27.3241 22.3779 28.0684 20.5278 28.6442C17.0098 29.7376 5.88551 30.0678 2.79519 28.6877C1.68434 28.192 3.76757 27.5039 4.42283 27.3595C5.10621 27.2074 5.49681 27.2358 5.49681 27.2358C4.26138 26.3429 -2.48844 28.989 2.06826 29.7468C14.4949 31.8144 24.7208 28.8158 21.4975 27.3241Z" fill="#5382A1"/>
<path d="M8.47535 17.6166C8.47535 17.6166 2.8169 18.9956 6.47162 19.4962C8.01471 19.7082 11.0909 19.6603 13.9563 19.4139C16.2981 19.2114 18.6495 18.7804 18.6495 18.7804C18.6495 18.7804 17.8238 19.1432 17.2264 19.5617C11.4802 21.1122 0.379673 20.391 3.57538 18.8049C6.27799 17.4646 8.47544 17.6166 8.47544 17.6166" fill="#5382A1"/>
<path d="M18.6261 23.4379C24.4675 20.3237 21.7667 17.331 19.8816 17.7343C19.4195 17.8329 19.2135 17.9183 19.2135 17.9183C19.2135 17.9183 19.3851 17.6427 19.7126 17.5234C23.4419 16.1782 26.31 21.4908 18.5088 23.5948C18.5088 23.5949 18.5992 23.512 18.6261 23.4379Z" fill="#5382A1"/>
<path d="M15.1045 0.0343027C15.1045 0.0343027 18.3395 3.35453 12.0362 8.45983C6.98176 12.5553 10.8837 14.8904 12.0342 17.5583C9.08374 14.8272 6.91848 12.4229 8.37116 10.1853C10.5032 6.90052 16.4097 5.30801 15.1045 0.0342102" fill="#E76F00"/>
<path d="M9.0494 31.8765C14.6563 32.2448 23.2662 31.6722 23.4701 28.9503C23.4701 28.9503 23.0782 29.9822 18.8364 30.8016C14.0508 31.7256 8.14849 31.6177 4.64774 31.0255C4.64783 31.0255 5.36439 31.6341 9.04949 31.8765" fill="#5382A1"/>
</g>
<defs>
<clipPath id="clip0">
<rect width="23.0769" height="32" fill="white" transform="translate(0.461533)"/>
</clipPath>
</defs>
</svg>
