<svg width="73" height="18" viewBox="0 0 73 18" fill="none" xmlns="http://www.w3.org/2000/svg">
<g clip-path="url(#clip0)">
<path d="M28.9143 10.5428L32.8872 15.4285H29.75L26.2143 10.9415V15.4285H23.6428V2.57147H26.2143V10.1315L29.48 6.42853H32.7585L28.9143 10.5428ZM18.6285 6.17147C18.0655 6.1799 17.5129 6.32466 17.0181 6.59335C16.5232 6.86204 16.1009 7.24666 15.7872 7.71427V6.42853H13.3572V15.4285H15.9285V11.2243C15.8948 10.9191 15.9242 10.6103 16.0149 10.317C16.1057 10.0236 16.2558 9.75216 16.456 9.51939C16.6562 9.28662 16.9022 9.09755 17.1786 8.96394C17.455 8.83034 17.756 8.75506 18.0628 8.7428C19.5543 8.7428 19.7857 10.2085 19.7857 11.2243V15.4285H22.3572V10.6585C22.3572 7.83 21.4185 6.17147 18.68 6.17147H18.6285ZM41.6428 11.1343C41.6526 11.3227 41.6526 11.5116 41.6428 11.7H34.8928V11.79C35.0024 12.3262 35.2994 12.8057 35.7306 13.1427C36.1618 13.4796 36.699 13.6519 37.2457 13.6285C37.6795 13.6474 38.1125 13.5786 38.519 13.4261C38.9255 13.2737 39.2971 13.0408 39.6115 12.7415L41.3215 14.0272C40.7795 14.5803 40.1276 15.0136 39.4079 15.2993C38.6881 15.5849 37.9165 15.7166 37.1428 15.6857C36.502 15.7262 35.86 15.6287 35.2602 15.3999C34.6603 15.171 34.1165 14.816 33.6656 14.359C33.2147 13.902 32.8671 13.3535 32.6463 12.7506C32.4255 12.1477 32.3366 11.5044 32.3857 10.8643C32.3726 10.2323 32.4897 9.60441 32.7299 9.01971C32.97 8.43501 33.328 7.90603 33.7815 7.46576C34.2351 7.02548 34.7745 6.68334 35.366 6.46067C35.9576 6.23799 36.5887 6.13954 37.22 6.17147C39.6372 6.17147 41.6428 7.88147 41.6428 11.1343ZM39.2515 10.0285C39.242 9.77386 39.1808 9.52379 39.0716 9.29354C38.9623 9.06329 38.8074 8.8577 38.6161 8.68929C38.4248 8.52087 38.2013 8.39317 37.9591 8.31395C37.7168 8.23474 37.461 8.20568 37.2072 8.22853C36.0766 8.10633 35.0527 8.90269 34.8928 10.0285H39.2515ZM3.07147 2.57147H0.5V15.4285H8.21427V12.8573H3.07147V2.57147ZM49.3572 2.57147H51.9285V15.4285H49.4985V14.5285C49.19 14.9087 48.7967 15.2114 48.3502 15.4123C47.9037 15.6132 47.4164 15.7069 46.9272 15.6857C46.3296 15.6704 45.7414 15.533 45.1988 15.282C44.6562 15.0309 44.1707 14.6716 43.7721 14.226C43.3736 13.7805 43.0703 13.2581 42.881 12.691C42.6917 12.124 42.6204 11.5242 42.6715 10.9285C42.6108 10.332 42.6749 9.72945 42.8598 9.1591C43.0446 8.58874 43.3462 8.06311 43.7453 7.61566C44.1444 7.1682 44.6322 6.80872 45.1778 6.56008C45.7234 6.31145 46.3147 6.1791 46.9143 6.17147C47.3608 6.1519 47.8068 6.2214 48.2262 6.37592C48.6456 6.53044 49.0301 6.76688 49.3572 7.07147V2.57147ZM49.55 10.9285C49.5904 10.6316 49.5667 10.3295 49.4805 10.0426C49.3943 9.75563 49.2475 9.4905 49.0501 9.26508C48.8527 9.03966 48.6093 8.85919 48.3362 8.73583C48.0632 8.61248 47.7668 8.54911 47.4672 8.55C46.2372 8.6393 45.3051 9.69708 45.3715 10.9285C45.3051 12.16 46.2372 13.2179 47.4672 13.3072C47.7668 13.3081 48.0632 13.2447 48.3363 13.1214C48.6093 12.998 48.8528 12.8175 49.0502 12.5921C49.2476 12.3666 49.3943 12.1015 49.4805 11.8145C49.5668 11.5276 49.5905 11.2254 49.55 10.9285ZM10.7857 2.31427C10.3722 2.32013 9.97635 2.48267 9.67804 2.76908C9.37973 3.05549 9.20121 3.44442 9.17853 3.85734C9.17853 4.74483 9.89811 5.46441 10.7857 5.46441C11.6734 5.46441 12.3927 4.74469 12.3927 3.85734C12.3699 3.44447 12.1914 3.05559 11.8931 2.76922C11.5949 2.48284 11.199 2.3203 10.7856 2.31441L10.7857 2.31427ZM9.5 15.4285H12.0715V6.42853H9.5V15.4285ZM72.5 1.28573V16.7143C72.5 17.0553 72.3645 17.3823 72.1234 17.6234C71.8823 17.8645 71.5553 18 71.2143 18H55.7857C55.4447 18 55.1177 17.8645 54.8766 17.6234C54.6355 17.3823 54.5 17.0553 54.5 16.7143V1.28573C54.5 0.944736 54.6355 0.617705 54.8766 0.376583C55.1177 0.135461 55.4447 0 55.7857 0L71.2143 0C71.5553 0 71.8823 0.135461 72.1234 0.376583C72.3645 0.617705 72.5 0.944736 72.5 1.28573ZM59.6428 6.42853H57.0715V15.4285H59.6428V6.42853ZM59.9643 3.8572C59.9643 2.96958 59.2447 2.25 58.3572 2.25C57.4696 2.25 56.75 2.96958 56.75 3.8572C56.75 4.74469 57.4696 5.46427 58.3572 5.46427C59.2447 5.46427 59.9643 4.74469 59.9643 3.8572ZM69.9285 10.6585C69.9285 7.83 68.99 6.17147 66.2515 6.17147C65.6797 6.17152 65.1167 6.31228 64.6122 6.58134C64.1077 6.85039 63.6771 7.23948 63.3585 7.71427V6.42853H60.9285V15.4285H63.5V11.2243C63.4662 10.9191 63.4956 10.6103 63.5864 10.317C63.6771 10.0236 63.8273 9.75216 64.0275 9.51939C64.2277 9.28662 64.4737 9.09755 64.7501 8.96394C65.0265 8.83034 65.3275 8.75506 65.6343 8.7428C67.1257 8.7428 67.3572 10.2085 67.3572 11.2243V15.4285H69.9285V10.6585Z" fill="#0A66C2"/>
</g>
<defs>
<clipPath id="clip0">
<rect width="72" height="18" fill="white" transform="translate(0.5)"/>
</clipPath>
</defs>
</svg>
