<svg width="108" height="64" viewBox="0 0 108 64" fill="none" xmlns="http://www.w3.org/2000/svg">
<path d="M27.3333 0C23.0899 0 19.0202 1.68571 16.0196 4.68629C13.0191 7.68687 11.3333 11.7565 11.3333 16H96.6667C96.6667 11.7565 94.981 7.68687 91.9804 4.68629C88.9798 1.68571 84.9101 0 80.6667 0H27.3333Z" fill="#DDDDDD"/>
<path d="M27.3333 64C23.0899 64 19.0202 62.3143 16.0196 59.3137C13.0191 56.3131 11.3333 52.2435 11.3333 48H96.6667C96.6667 52.2435 94.981 56.3131 91.9804 59.3137C88.9798 62.3143 84.9101 64 80.6667 64H27.3333Z" fill="#DDDDDD"/>
<path d="M6.00001 26.6667C4.58552 26.6667 3.22896 27.2286 2.22877 28.2288C1.22857 29.2289 0.666672 30.5855 0.666672 32C0.666672 33.4145 1.22857 34.771 2.22877 35.7712C3.22896 36.7714 4.58552 37.3333 6.00001 37.3333H102C103.414 37.3333 104.771 36.7714 105.771 35.7712C106.771 34.771 107.333 33.4145 107.333 32C107.333 30.5855 106.771 29.2289 105.771 28.2288C104.771 27.2286 103.414 26.6667 102 26.6667H6.00001Z" fill="#DDDDDD"/>
</svg>
